<mxfile host="app.diagrams.net" modified="2023-10-24T12:04:49.241Z" agent="Mozilla/5.0 (Windows NT 10.0; Win64; x64) AppleWebKit/537.36 (KHTML, like Gecko) Chrome/118.0.0.0 Safari/537.36 Edg/118.0.2088.61" etag="K8Cpb92XfpsQsIRf5SmL" version="22.0.6" type="google">
  <diagram name="Page-1" id="sEBTNtrxR3POICYGanz0">
    <mxGraphModel grid="1" page="1" gridSize="10" guides="1" tooltips="1" connect="1" arrows="1" fold="1" pageScale="1" pageWidth="850" pageHeight="1100" math="0" shadow="0">
      <root>
        <mxCell id="0" />
        <mxCell id="1" parent="0" />
        <mxCell id="IF8-MLtvQ8zPBPyY9lu3-2" value="" style="ellipse;whiteSpace=wrap;html=1;aspect=fixed;" vertex="1" parent="1">
          <mxGeometry x="35" y="280" width="540" height="540" as="geometry" />
        </mxCell>
        <mxCell id="IF8-MLtvQ8zPBPyY9lu3-5" value="&lt;font style=&quot;font-size: 10px;&quot;&gt;Aging&lt;/font&gt;" style="ellipse;whiteSpace=wrap;html=1;aspect=fixed;fillColor=#FFFFFF;strokeColor=#F19C99;strokeWidth=2;dashed=1;dashPattern=8 8;" vertex="1" parent="1">
          <mxGeometry x="120" y="615" width="50" height="50" as="geometry" />
        </mxCell>
        <mxCell id="IF8-MLtvQ8zPBPyY9lu3-6" value="&lt;font style=&quot;font-size: 10px;&quot;&gt;Human Action&amp;nbsp;&lt;/font&gt;" style="ellipse;whiteSpace=wrap;html=1;aspect=fixed;fillColor=#FFFFFF;strokeColor=#F19C99;strokeWidth=2;dashed=1;dashPattern=8 8;" vertex="1" parent="1">
          <mxGeometry x="130" y="390" width="50" height="50" as="geometry" />
        </mxCell>
        <mxCell id="IF8-MLtvQ8zPBPyY9lu3-7" value="" style="shape=flexArrow;endArrow=classic;html=1;rounded=0;width=0.3225806451612903;endSize=1.064804469273743;endWidth=2.980717246350694;strokeColor=#F19C99;" edge="1" parent="1" source="IF8-MLtvQ8zPBPyY9lu3-5" target="IF8-MLtvQ8zPBPyY9lu3-21">
          <mxGeometry width="50" height="50" relative="1" as="geometry">
            <mxPoint x="482" y="-95" as="sourcePoint" />
            <mxPoint x="200.41921332548918" y="572.9959058299014" as="targetPoint" />
          </mxGeometry>
        </mxCell>
        <mxCell id="IF8-MLtvQ8zPBPyY9lu3-8" value="&lt;font style=&quot;font-size: 10px;&quot;&gt;Incorrect maintenance procedure&lt;/font&gt;" style="ellipse;whiteSpace=wrap;html=1;aspect=fixed;fillColor=#FFFFFF;strokeColor=#F19C99;strokeWidth=2;dashed=1;dashPattern=8 8;" vertex="1" parent="1">
          <mxGeometry x="170" y="480" width="50" height="50" as="geometry" />
        </mxCell>
        <mxCell id="IF8-MLtvQ8zPBPyY9lu3-9" value="" style="shape=flexArrow;endArrow=classic;html=1;rounded=0;width=0.3225806451612903;endSize=1.064804469273743;endWidth=2.980717246350694;strokeColor=#F19C99;" edge="1" parent="1" source="IF8-MLtvQ8zPBPyY9lu3-8" target="IF8-MLtvQ8zPBPyY9lu3-21">
          <mxGeometry width="50" height="50" relative="1" as="geometry">
            <mxPoint x="305" y="545" as="sourcePoint" />
            <mxPoint x="204.33918139954494" y="570.0438604965875" as="targetPoint" />
          </mxGeometry>
        </mxCell>
        <mxCell id="IF8-MLtvQ8zPBPyY9lu3-10" value="" style="shape=flexArrow;endArrow=classic;html=1;rounded=0;width=0.3225806451612903;endSize=1.064804469273743;endWidth=2.980717246350694;strokeColor=#F19C99;" edge="1" parent="1" source="IF8-MLtvQ8zPBPyY9lu3-6" target="IF8-MLtvQ8zPBPyY9lu3-14">
          <mxGeometry width="50" height="50" relative="1" as="geometry">
            <mxPoint x="450" y="615" as="sourcePoint" />
            <mxPoint x="315" y="585" as="targetPoint" />
          </mxGeometry>
        </mxCell>
        <mxCell id="IF8-MLtvQ8zPBPyY9lu3-11" value="" style="shape=flexArrow;endArrow=classic;html=1;rounded=0;width=0.3225806451612903;endSize=1.064804469273743;endWidth=2.980717246350694;strokeColor=#F19C99;" edge="1" parent="1" source="IF8-MLtvQ8zPBPyY9lu3-14" target="IF8-MLtvQ8zPBPyY9lu3-8">
          <mxGeometry width="50" height="50" relative="1" as="geometry">
            <mxPoint x="440" y="650" as="sourcePoint" />
            <mxPoint x="460" y="665" as="targetPoint" />
          </mxGeometry>
        </mxCell>
        <mxCell id="IF8-MLtvQ8zPBPyY9lu3-13" value="&lt;font style=&quot;font-size: 10px;&quot;&gt;Robot Action&amp;nbsp;&lt;/font&gt;" style="ellipse;whiteSpace=wrap;html=1;aspect=fixed;fillColor=#FFFFFF;strokeColor=#F19C99;strokeWidth=2;dashed=1;dashPattern=8 8;" vertex="1" parent="1">
          <mxGeometry x="210" y="390" width="50" height="50" as="geometry" />
        </mxCell>
        <mxCell id="IF8-MLtvQ8zPBPyY9lu3-14" value="" style="ellipse;whiteSpace=wrap;html=1;aspect=fixed;fillColor=#000000;strokeColor=#000000;" vertex="1" parent="1">
          <mxGeometry x="190" y="440" width="10" height="10" as="geometry" />
        </mxCell>
        <mxCell id="IF8-MLtvQ8zPBPyY9lu3-15" value="" style="shape=flexArrow;endArrow=classic;html=1;rounded=0;width=0.3225806451612903;endSize=1.064804469273743;endWidth=2.980717246350694;strokeColor=#F19C99;" edge="1" parent="1" source="IF8-MLtvQ8zPBPyY9lu3-13" target="IF8-MLtvQ8zPBPyY9lu3-14">
          <mxGeometry width="50" height="50" relative="1" as="geometry">
            <mxPoint x="390" y="542.77" as="sourcePoint" />
            <mxPoint x="476.576385689822" y="647.2272271813727" as="targetPoint" />
          </mxGeometry>
        </mxCell>
        <mxCell id="IF8-MLtvQ8zPBPyY9lu3-16" value="&lt;font style=&quot;font-size: 14px;&quot;&gt;F&lt;/font&gt;&lt;font style=&quot;font-size: 11.6667px;&quot;&gt;&lt;sub&gt;PhotoValtic_Thermal_Control_System&lt;/sub&gt;&lt;/font&gt;" style="ellipse;whiteSpace=wrap;html=1;aspect=fixed;fillColor=#A9C4EB;" vertex="1" parent="1">
          <mxGeometry x="330" y="600" width="80" height="80" as="geometry" />
        </mxCell>
        <mxCell id="IF8-MLtvQ8zPBPyY9lu3-17" value="&lt;font style=&quot;font-size: 14px;&quot;&gt;H&lt;sub&gt;battery&lt;/sub&gt;&lt;/font&gt;" style="ellipse;whiteSpace=wrap;html=1;aspect=fixed;fillColor=#CCCCCC;" vertex="1" parent="1">
          <mxGeometry x="300" y="492.5" width="80" height="80" as="geometry" />
        </mxCell>
        <mxCell id="IF8-MLtvQ8zPBPyY9lu3-21" value="&lt;font style=&quot;font-size: 14px;&quot;&gt;V&lt;sub&gt;damage&lt;/sub&gt;&lt;/font&gt;" style="ellipse;whiteSpace=wrap;html=1;aspect=fixed;fillColor=#FFFFFF;strokeColor=#080505;strokeWidth=1;" vertex="1" parent="1">
          <mxGeometry x="170" y="550" width="80" height="80" as="geometry" />
        </mxCell>
        <mxCell id="IF8-MLtvQ8zPBPyY9lu3-22" value="" style="shape=flexArrow;endArrow=classic;html=1;rounded=0;fillColor=#000000;width=0.3225806451612903;endSize=1.064804469273743;endWidth=2.980717246350694;" edge="1" parent="1" source="IF8-MLtvQ8zPBPyY9lu3-21" target="IF8-MLtvQ8zPBPyY9lu3-17">
          <mxGeometry width="50" height="50" relative="1" as="geometry">
            <mxPoint x="839" y="540" as="sourcePoint" />
            <mxPoint x="871" y="531" as="targetPoint" />
          </mxGeometry>
        </mxCell>
        <mxCell id="IF8-MLtvQ8zPBPyY9lu3-23" value="&lt;span style=&quot;font-size: 14px;&quot;&gt;F&lt;sub&gt;power_discharge&lt;/sub&gt;&lt;/span&gt;" style="ellipse;whiteSpace=wrap;html=1;aspect=fixed;fillColor=#A9C4EB;" vertex="1" parent="1">
          <mxGeometry x="350" y="390" width="80" height="80" as="geometry" />
        </mxCell>
        <mxCell id="IF8-MLtvQ8zPBPyY9lu3-24" value="" style="shape=flexArrow;endArrow=classic;html=1;rounded=0;fillColor=#000000;width=0.3225806451612903;endSize=1.064804469273743;endWidth=2.980717246350694;" edge="1" parent="1" source="IF8-MLtvQ8zPBPyY9lu3-17" target="IF8-MLtvQ8zPBPyY9lu3-23">
          <mxGeometry width="50" height="50" relative="1" as="geometry">
            <mxPoint x="839" y="540" as="sourcePoint" />
            <mxPoint x="871" y="531" as="targetPoint" />
          </mxGeometry>
        </mxCell>
        <mxCell id="IF8-MLtvQ8zPBPyY9lu3-25" value="" style="endArrow=classic;html=1;rounded=0;" edge="1" parent="1" source="IF8-MLtvQ8zPBPyY9lu3-16" target="IF8-MLtvQ8zPBPyY9lu3-17">
          <mxGeometry width="50" height="50" relative="1" as="geometry">
            <mxPoint x="420" y="640" as="sourcePoint" />
            <mxPoint x="470" y="590" as="targetPoint" />
          </mxGeometry>
        </mxCell>
        <mxCell id="IF8-MLtvQ8zPBPyY9lu3-26" value="&lt;font style=&quot;font-size: 10px;&quot;&gt;Overheating&lt;/font&gt;" style="ellipse;whiteSpace=wrap;html=1;aspect=fixed;fillColor=#FFFFFF;strokeColor=#F19C99;strokeWidth=2;dashed=1;dashPattern=8 8;" vertex="1" parent="1">
          <mxGeometry x="440" y="680" width="50" height="50" as="geometry" />
        </mxCell>
        <mxCell id="IF8-MLtvQ8zPBPyY9lu3-27" value="" style="shape=flexArrow;endArrow=classic;html=1;rounded=0;width=0.3225806451612903;endSize=1.064804469273743;endWidth=2.980717246350694;strokeColor=#F19C99;" edge="1" parent="1" source="IF8-MLtvQ8zPBPyY9lu3-26" target="IF8-MLtvQ8zPBPyY9lu3-16">
          <mxGeometry width="50" height="50" relative="1" as="geometry">
            <mxPoint x="595.01" y="694.23" as="sourcePoint" />
            <mxPoint x="385.0035142146048" y="614.995134516525" as="targetPoint" />
          </mxGeometry>
        </mxCell>
        <mxCell id="IF8-MLtvQ8zPBPyY9lu3-28" value="&lt;font style=&quot;font-size: 10px;&quot;&gt;Underheating&lt;/font&gt;" style="ellipse;whiteSpace=wrap;html=1;aspect=fixed;fillColor=#FFFFFF;strokeColor=#F19C99;strokeWidth=2;dashed=1;dashPattern=8 8;" vertex="1" parent="1">
          <mxGeometry x="280" y="700" width="50" height="50" as="geometry" />
        </mxCell>
        <mxCell id="IF8-MLtvQ8zPBPyY9lu3-29" value="" style="shape=flexArrow;endArrow=classic;html=1;rounded=0;width=0.3225806451612903;endSize=1.064804469273743;endWidth=2.980717246350694;strokeColor=#F19C99;" edge="1" parent="1" source="IF8-MLtvQ8zPBPyY9lu3-28" target="IF8-MLtvQ8zPBPyY9lu3-16">
          <mxGeometry width="50" height="50" relative="1" as="geometry">
            <mxPoint x="420.5" y="802.77" as="sourcePoint" />
            <mxPoint x="229.5" y="702" as="targetPoint" />
          </mxGeometry>
        </mxCell>
        <mxCell id="IF8-MLtvQ8zPBPyY9lu3-1" value="Batteries are prone to:&lt;br&gt;-Overheating/Overcooling&lt;br&gt;-Aging&amp;nbsp;&lt;br&gt;-Agent Mishandling&lt;br&gt;" style="text;html=1;strokeColor=none;fillColor=none;align=center;verticalAlign=middle;whiteSpace=wrap;rounded=0;" vertex="1" parent="1">
          <mxGeometry x="450" y="492.5" width="180" height="80" as="geometry" />
        </mxCell>
        <mxCell id="IF8-MLtvQ8zPBPyY9lu3-31" value="&lt;b&gt;&lt;font style=&quot;font-size: 18px;&quot;&gt;Battery&lt;/font&gt;&lt;/b&gt;" style="text;html=1;strokeColor=none;fillColor=none;align=center;verticalAlign=middle;whiteSpace=wrap;rounded=0;" vertex="1" parent="1">
          <mxGeometry x="260" y="300" width="60" height="30" as="geometry" />
        </mxCell>
      </root>
    </mxGraphModel>
  </diagram>
</mxfile>
